<?xml version="1.0" encoding="utf-8"?>
<!-- Generator: Adobe Illustrator 18.0.0, SVG Export Plug-In . SVG Version: 6.00 Build 0)  -->
<!DOCTYPE svg PUBLIC "-//W3C//DTD SVG 1.1//EN" "http://www.w3.org/Graphics/SVG/1.1/DTD/svg11.dtd">
<svg version="1.1" id="Layer_1" xmlns="http://www.w3.org/2000/svg" xmlns:xlink="http://www.w3.org/1999/xlink" x="0px" y="0px"
	 viewBox="0 0 66 66" enable-background="new 0 0 66 66" xml:space="preserve">
<g>
	<circle fill-rule="evenodd" clip-rule="evenodd" fill="#3C4AD9" cx="33" cy="33" r="33"/>
	<path fill-rule="evenodd" clip-rule="evenodd" fill="#FFFFFF" d="M50,18H16c-1.1,0-2,0.9-2,2l0,26c0,1.1,0.9,2,2,2h34
		c1.1,0,2-0.9,2-2l0-26C52,18.9,51.1,18,50,18z M32,21c1.1,0,2,0.9,2,2c0,1.1-0.9,2-2,2c-1.1,0-2-0.9-2-2C30,21.9,30.9,21,32,21z
		 M26,21c1.1,0,2,0.9,2,2c0,1.1-0.9,2-2,2c-1.1,0-2-0.9-2-2C24,21.9,24.9,21,26,21z M20,21c1.1,0,2,0.9,2,2c0,1.1-0.9,2-2,2
		c-1.1,0-2-0.9-2-2C18,21.9,18.9,21,20,21z M50,46H16l0-18h34L50,46z M19.1,46c0-0.3,0-0.7,0-1c0-7.7,6.3-14,14-14
		c7.7,0,14,6.3,14,14c0,0.3,0,0.7,0,1h-2c0-0.3,0.1-0.7,0.1-1c0-5.5-3.7-10.2-8.8-11.6c0.3,0.8,0.6,2,0.8,3.8
		c1.3,10.2-0.3,3.2-2.1,3.6c-1.4,0.3-2.7,2.3-2.5,3.1c0.3,0.9,0.6,1.5,0.9,2.1h-4.4c-0.6-1.3-3.9-1.9-4.5-3.9
		c-0.7-2.2-0.9-3.4-1-4.2c-1.5,2-2.4,4.4-2.4,7.1c0,0.3,0,0.7,0,1H19.1z"/>
</g>
</svg>
