<svg xmlns="http://www.w3.org/2000/svg" viewBox="0 0 60 60">
  <path fill="#0065AB" d="M10.1 44.4h-.3C4.6 42.9 1 38 1 32.4c0-5.3 3.2-9.9 8-11.6.3-4.3 2.1-8.4 5.1-11.4 3.2-3.3 7.5-5.1 12-5.1 6.5 0 12.4 3.8 15.4 9.8h2.7C52.4 14 59 20.9 59 29.4c0 6-3.4 11.5-8.7 14-.6.3-1.3 0-1.6-.6-.3-.6 0-1.3.6-1.6 4.4-2.1 7.3-6.7 7.3-11.8 0-7.1-5.6-12.9-12.4-12.9h-1.6c-.5 0-1.1 0-1.7.1l-.9.1-.4-.9c-2.4-5.6-7.7-9.1-13.5-9.1-3.9 0-7.5 1.6-10.3 4.4-2.8 2.8-4.4 6.6-4.4 10.6v.9l-.9.2C6.3 24 3.4 28 3.4 32.4c0 4.5 2.9 8.4 7 9.5.6.2 1 .9.8 1.5-.1.6-.5 1-1.1 1"/>
  <path fill="#DFA100" d="M45.9 29.2c.1-.2.1-.5 0-.7v-.6l-15.7-9.3-15.6 9.3v18.5l15.6 9.3.3-.2c.2 0 .4-.1.5-.3l14.8-8.8V29.2zm-3.3-.4l-12.1 6.7-12.3-6.9 12.1-7.2 12.3 7.4zM17 30.6l12.7 7.1v14.9L17 45V30.6zm14.2 21.7V37.7l12.3-6.8V45l-12.3 7.3z"/>
</svg>
