<?xml version="1.0" ?><!DOCTYPE svg  PUBLIC '-//W3C//DTD SVG 1.1//EN'  'http://www.w3.org/Graphics/SVG/1.1/DTD/svg11.dtd'><svg enable-background="new 0 0 128 128" id="Слой_1" version="1.1" viewBox="0 0 128 128" xml:space="preserve" xmlns="http://www.w3.org/2000/svg" xmlns:xlink="http://www.w3.org/1999/xlink"><g><path d="M119,108.3H9c-2.8,0-5-2.2-5-5v-80c0-2.8,2.2-5,5-5h110c2.8,0,5,2.2,5,5v80   C124,106.1,121.8,108.3,119,108.3z" fill="#DCB992"/><g><path d="M67.2,70.6c-1.9,1.5-4.5,1.5-6.4,0L4,23.3v13l50.4,42c2.7,2.2,6.1,3.5,9.6,3.5    s6.9-1.2,9.6-3.5l50.4-42v-13L67.2,70.6z" fill="#060808" opacity="0.1"/><path d="M119,18.3H9c-2.8,0-5,2.2-5,5l56.8,47.3c1.9,1.5,4.5,1.5,6.4,0L124,23.3C124,20.6,121.8,18.3,119,18.3z" fill="#DCB992"/><path d="M119,16.8H9c-3.5,0-6.4,2.8-6.5,6.3c0,0,0,0,0,0c0,0.1,0,0.1,0,0.1v80c0,1.9,0.9,3.7,2.2,4.9    c0,0,0,0,0.1,0c1.1,1,2.6,1.6,4.2,1.6h110c3.6,0,6.5-2.9,6.5-6.5v-80C125.5,19.7,122.6,16.8,119,16.8z M5.5,26.5L55.3,68L5.9,105    c-0.3-0.5-0.4-1.1-0.4-1.7V26.5z M119,106.8H9c-0.2,0-0.3,0-0.4,0L57.6,70l2.2,1.8c1.2,1,2.7,1.5,4.2,1.5c1.5,0,3-0.5,4.2-1.5    l2.3-2l50.5,36.3C120.5,106.6,119.8,106.8,119,106.8z M122.5,103.3c0,0.1,0,0.1,0,0.2L72.9,67.9L114.7,33c0.6-0.5,0.7-1.5,0.2-2.1    c-0.5-0.6-1.5-0.7-2.1-0.2L66.2,69.5c-1.3,1.1-3.2,1.1-4.5,0L5.6,22.7C5.9,21,7.3,19.8,9,19.8h110c1.9,0,3.5,1.6,3.5,3.5V103.3z" fill="#4A374F"/></g></g></svg>