<?xml version="1.0" encoding="utf-8"?>
<!-- Generator: Adobe Illustrator 18.1.1, SVG Export Plug-In . SVG Version: 6.00 Build 0)  -->
<svg version="1.1" id="Layer_1" xmlns="http://www.w3.org/2000/svg" xmlns:xlink="http://www.w3.org/1999/xlink" x="0px" y="0px"
	 viewBox="0 0 200 200" enable-background="new 0 0 200 200" xml:space="preserve">
<circle fill="#ECECEC" cx="100" cy="98.3" r="93"/>
<line fill="#ECECEC" x1="100" y1="-6.4" x2="100" y2="199.6"/>
<path fill="#D9D9D9" d="M100,5.3v186c51,0,93-41.6,93-93C193,46.9,151,5.3,100,5.3z"/>
<path fill="#F78D46" d="M100,178.3c-44.6,0-80.9-36.3-80.9-80.9S55.4,16.4,100,16.4s80.9,36.3,80.9,80.9S144.6,178.3,100,178.3z"/>
<path fill="#EF8C48" d="M100,16.4v161.9c45,0,80.9-36.3,80.9-80.9S145,16.4,100,16.4z"/>
<g>
	<rect x="52.4" y="131.9" fill="#FFFFFF" width="12.2" height="4.6"/>
	<rect x="72.2" y="131.9" fill="#FFFFFF" width="12.2" height="4.6"/>
	<rect x="92" y="131.9" fill="#FFFFFF" width="12.2" height="4.6"/>
	<rect x="111.8" y="131.9" fill="#FFFFFF" width="12.2" height="4.6"/>
	<rect x="131.7" y="131.9" fill="#FFFFFF" width="12.2" height="4.6"/>
	<rect x="111.8" y="40.5" fill="#FFFFFF" width="12.2" height="4.6"/>
	<rect x="111.8" y="48.1" fill="#FFFFFF" width="12.2" height="4.6"/>
	<rect x="92" y="55.7" fill="#FFFFFF" width="12.2" height="4.6"/>
	<rect x="111.8" y="55.7" fill="#FFFFFF" width="12.2" height="4.6"/>
	<rect x="92" y="63.4" fill="#FFFFFF" width="12.2" height="4.6"/>
	<rect x="111.8" y="63.4" fill="#FFFFFF" width="12.2" height="4.6"/>
	<rect x="131.7" y="63.4" fill="#FFFFFF" width="12.2" height="4.6"/>
	<rect x="92" y="71" fill="#FFFFFF" width="12.2" height="4.6"/>
	<rect x="111.8" y="71" fill="#FFFFFF" width="12.2" height="4.6"/>
	<rect x="131.7" y="71" fill="#FFFFFF" width="12.2" height="4.6"/>
	<rect x="72.2" y="78.6" fill="#FFFFFF" width="12.2" height="4.6"/>
	<rect x="92" y="78.6" fill="#FFFFFF" width="12.2" height="4.6"/>
	<rect x="111.8" y="78.6" fill="#FFFFFF" width="12.2" height="4.6"/>
	<rect x="131.7" y="78.6" fill="#FFFFFF" width="12.2" height="4.6"/>
	<rect x="72.2" y="86.2" fill="#FFFFFF" width="12.2" height="4.6"/>
	<rect x="92" y="86.2" fill="#FFFFFF" width="12.2" height="4.6"/>
	<rect x="111.8" y="86.2" fill="#FFFFFF" width="12.2" height="4.6"/>
	<rect x="131.7" y="86.2" fill="#FFFFFF" width="12.2" height="4.6"/>
	<rect x="72.2" y="93.8" fill="#FFFFFF" width="12.2" height="4.6"/>
	<rect x="92" y="93.8" fill="#FFFFFF" width="12.2" height="4.6"/>
	<rect x="111.8" y="93.8" fill="#FFFFFF" width="12.2" height="4.6"/>
	<rect x="131.7" y="93.8" fill="#FFFFFF" width="12.2" height="4.6"/>
	<rect x="72.2" y="101.4" fill="#FFFFFF" width="12.2" height="4.6"/>
	<rect x="92" y="101.4" fill="#FFFFFF" width="12.2" height="4.6"/>
	<rect x="111.8" y="101.4" fill="#FFFFFF" width="12.2" height="4.6"/>
	<rect x="131.7" y="101.4" fill="#FFFFFF" width="12.2" height="4.6"/>
	<rect x="52.4" y="109.1" fill="#FFFFFF" width="12.2" height="4.6"/>
	<rect x="72.2" y="109.1" fill="#FFFFFF" width="12.2" height="4.6"/>
	<rect x="92" y="109.1" fill="#FFFFFF" width="12.2" height="4.6"/>
	<rect x="111.8" y="109.1" fill="#FFFFFF" width="12.2" height="4.6"/>
	<rect x="131.7" y="109.1" fill="#FFFFFF" width="12.2" height="4.6"/>
	<rect x="52.4" y="116.7" fill="#FFFFFF" width="12.2" height="4.6"/>
	<rect x="72.2" y="116.7" fill="#FFFFFF" width="12.2" height="4.6"/>
	<rect x="92" y="116.7" fill="#FFFFFF" width="12.2" height="4.6"/>
	<rect x="111.8" y="116.7" fill="#FFFFFF" width="12.2" height="4.6"/>
	<rect x="131.7" y="116.7" fill="#FFFFFF" width="12.2" height="4.6"/>
	<rect x="52.4" y="124.3" fill="#FFFFFF" width="12.2" height="4.6"/>
	<rect x="72.2" y="124.3" fill="#FFFFFF" width="12.2" height="4.6"/>
	<rect x="92" y="124.3" fill="#FFFFFF" width="12.2" height="4.6"/>
	<rect x="111.8" y="124.3" fill="#FFFFFF" width="12.2" height="4.6"/>
	<rect x="131.7" y="124.3" fill="#FFFFFF" width="12.2" height="4.6"/>
</g>
</svg>
