<?xml version="1.0" encoding="UTF-8" standalone="no"?>
<!-- Generator: Adobe Illustrator 19.2.1, SVG Export Plug-In . SVG Version: 6.00 Build 0)  -->
<svg id="svg1384" xmlns:rdf="http://www.w3.org/1999/02/22-rdf-syntax-ns#" style="enable-background:new 0 0 60 42.8" xmlns="http://www.w3.org/2000/svg" xml:space="preserve" viewBox="0 0 60 42.8" sodipodi:version="0.32" xmlns:dc="http://purl.org/dc/elements/1.1/" version="1.1" y="0px" x="0px" xmlns:cc="http://web.resource.org/cc/" xmlns:xlink="http://www.w3.org/1999/xlink" sodipodi:docname="gimp-original.svg" sodipodi:docbase="/tmp" xmlns:sodipodi="http://inkscape.sourceforge.net/DTD/sodipodi-0.dtd">
<style type="text/css">
	.st0{fill:url(#path10318_1_);}
	.st1{fill:url(#path11219_1_);fill-opacity:0.4324;}
	.st2{fill:url(#rect1411_1_);}
	.st3{fill:url(#path2287_1_);}
	.st4{fill:url(#path2290_1_);}
	.st5{fill:url(#path2292_1_);}
	.st6{fill:url(#path2294_1_);}
	.st7{fill:url(#path2296_1_);}
	.st8{fill:url(#rect2298_1_);}
	.st9{fill:url(#path2301_1_);}
	.st10{fill:url(#path3240_1_);}
	.st11{fill:url(#rect9397_1_);}
	.st12{fill:url(#path9400_1_);}
	.st13{fill:url(#path9402_1_);}
</style>
<sodipodi:namedview id="base" bordercolor="#666666" borderopacity="1.0" pagecolor="#ffffff"/>
<g id="g11249" transform="translate(-130.88 -195.87)">
		<radialGradient id="path10318_1_" gradientUnits="userSpaceOnUse" cy="-367.39" cx="1072.1" gradientTransform="matrix(.0022651 .4568 -.9632 .0047861 -198.38 -260.14)" r="28.036">
		<stop offset="0"/>
		<stop stop-color="#fff" stop-opacity="0" offset="1"/>
	</radialGradient>
		<path id="path10318" sodipodi:rx="236.76941" sodipodi:ry="131.06879" sodipodi:type="arc" d="m186.9 225.4c0 8.5-12.6 15.5-28 15.5-15.5 0-28-7-28-15.5s12.6-15.5 28-15.5c15.4 0.1 28 7.1 28 15.5z" class="st0" sodipodi:cy="498.49088" sodipodi:cx="409.37231"/>
		<radialGradient id="path11219_1_" gradientUnits="userSpaceOnUse" cy="1079.1" cx="-39.518" gradientTransform="matrix(1.6756 .338 -.116 .5752 365.21 -375.23)" r="10.745">
		<stop offset="0"/>
		<stop stop-color="#fff" stop-opacity="0" offset="1"/>
	</radialGradient>
		<path id="path11219" sodipodi:rx="145.74088" sodipodi:ry="67.769081" sodipodi:type="arc" d="m190.8 236.7c-0.9 4.4-9.1 6.2-18.5 4.2s-16-7.2-15.2-11.5c0.9-4.4 9.1-6.2 18.5-4.2s16.2 7.1 15.2 11.5z" class="st1" sodipodi:cy="486.26025" sodipodi:cx="47.482918"/>
	<g id="g8513">
			<linearGradient id="rect1411_1_" y2="993.02" gradientUnits="userSpaceOnUse" x2="693.11" gradientTransform="translate(-523.52 -774.46)" y1="983.36" x1="672.27">
			<stop stop-color="#8E8570" offset="0"/>
			<stop stop-color="#464236" offset="1"/>
		</linearGradient>
		<path id="rect1411" d="m141.8 200.6c14.4 19.7 32.4 11.5 36.5-1.7 1.2 14.2-0.7 13.4-5.7 18.5-0.5 3.7-0.7 3.6-3.2 8.9-7.4 12.2-33.2 3.3-35.6-3.3l2.5-6c4.4-0.1 8.2-0.7 12.7-0.9-4.6-5.6-5.4-9.2-7.2-15.5z" sodipodi:nodetypes="cccccccc" class="st2"/>
			<radialGradient id="path2287_1_" gradientUnits="userSpaceOnUse" cy="2585.7" cx="845.32" gradientTransform="matrix(.4742 -.2412 .2102 .4138 -808.04 -648.64)" r="4.8311">
			<stop stop-color="#F8F8F8" offset="0"/>
			<stop offset="1"/>
		</radialGradient>
		<path id="path2287" d="m142.3 218.8c1.8 3.2 0.9 6.3-2.4 7.8-2.5 1.2-5.5-0.9-6.9-4.4-1.4-3.4-0.5-6.9 2.1-7.8 2.8-0.7 5.6 1.8 7.2 4.4z" sodipodi:nodetypes="cssss" class="st3"/>
			<radialGradient id="path2290_1_" gradientUnits="userSpaceOnUse" cy="936.37" cx="610.43" gradientTransform="matrix(1.0656 0 0 1.0984 -504.58 -811.81)" r="3.5931">
			<stop stop-color="#FEFEFE" offset="0"/>
			<stop stop-color="#E2E2E2" offset="1"/>
		</radialGradient>
			<path id="path2290" sodipodi:rx="30.342299" sodipodi:ry="31.585835" sodipodi:type="arc" d="m149.7 216.8c0 2.1-1.7 4-3.8 4s-3.8-1.8-3.8-4c0-2.1 1.7-4 3.8-4s3.8 1.8 3.8 4z" class="st4" sodipodi:cy="361.45312" sodipodi:cx="273.82681"/>
			<radialGradient id="path2292_1_" gradientUnits="userSpaceOnUse" cy="1470.1" cx="-98.604" gradientTransform="matrix(.6926 -.7042 .697 .6855 -801.22 -858.4)" r="3.5929">
			<stop stop-color="#FEFEFE" offset="0"/>
			<stop stop-color="#E2E2E2" offset="1"/>
		</radialGradient>
			<path id="path2292" sodipodi:rx="30.342299" sodipodi:ry="31.585835" sodipodi:type="arc" d="m159.5 218c0 2.7-2.1 4.9-4.6 4.9-2.7 0-4.6-2.1-4.6-4.9 0-2.7 2.1-4.9 4.6-4.9s4.6 2.3 4.6 4.9z" class="st5" sodipodi:cy="361.45312" sodipodi:cx="273.82681"/>
			<radialGradient id="path2294_1_" gradientUnits="userSpaceOnUse" cy="911.93" cx="669.91" gradientTransform="matrix(1 0 0 1.1482 -523.52 -829.85)" r="1.6868">
			<stop stop-color="#F8F8F8" offset="0"/>
			<stop offset="1"/>
		</radialGradient>
			<path id="path2294" sodipodi:rx="14.244876" sodipodi:ry="16.355227" sodipodi:type="arc" d="m148.6 217.8c0 0.9-0.8 2-1.7 2s-1.7-0.8-1.7-2c0-0.9 0.8-2 1.7-2 1.1 0 1.7 0.9 1.7 2z" class="st6" sodipodi:cy="368.60815" sodipodi:cx="281.20441"/>
			<radialGradient id="path2296_1_" gradientUnits="userSpaceOnUse" cy="905.21" cx="651.42" gradientTransform="matrix(1.0319 0 0 1.1702 -517.03 -840.86)" r="1.9574">
			<stop stop-color="#F8F8F8" offset="0"/>
			<stop offset="1"/>
		</radialGradient>
			<path id="path2296" sodipodi:rx="16.53109" sodipodi:ry="18.641443" sodipodi:type="arc" d="m157.9 219.2c0 1.3-0.8 2.4-2 2.4s-2-0.9-2-2.4c0-1.3 0.8-2.4 2-2.4 1.1 0 2 1 2 2.4z" class="st7" sodipodi:cy="380.74268" sodipodi:cx="357.35294"/>
			<linearGradient id="rect2298_1_" y2="1005" gradientUnits="userSpaceOnUse" x2="677.09" gradientTransform="translate(-523.52 -774.46)" y1="1001.8" x1="675.72">
			<stop stop-color="#423E32" offset="0"/>
			<stop stop-color="#8E8872" offset="1"/>
		</linearGradient>
		<path id="rect2298" d="m141.6 229.3c10.2-0.4 14.7-0.5 20.2-6.5 0 5.2-2.4 8.3-5 8.7-4.7 0.7-9.9-0.1-15.2-2.2z" sodipodi:nodetypes="ccsc" class="st8"/>
			<linearGradient id="path2301_1_" y2="981.39" gradientUnits="userSpaceOnUse" x2="693.24" gradientTransform="translate(-523.52 -774.46)" y1="985.89" x1="695.81">
			<stop stop-color="#464236" offset="0"/>
			<stop stop-color="#7F7763" offset="1"/>
		</linearGradient>
		<path id="path2301" d="m159.5 212.3c5-0.1 12.8-0.4 19-13.4-2.1 13.4-7.8 14.7-10.6 15.2-2.6 0.4-6.8-0.8-8.4-1.8z" sodipodi:nodetypes="cczc" class="st9"/>
			<linearGradient id="path3240_1_" y2="1294.8" gradientUnits="userSpaceOnUse" x2="353.04" gradientTransform="matrix(.9604 -.3702 .3685 .965 -680.3 -900.4)" y1="1301.1" x1="354.76">
			<stop stop-color="#808080" offset="0"/>
			<stop stop-opacity="0" offset="1"/>
		</linearGradient>
		<path id="path3240" d="m142.3 218.8c1.8 3.2 0.9 6.3-2.4 7.8-2.5 1.2-5.5-0.9-6.9-4.4-1.1-3 7.7-6 9.3-3.4z" sodipodi:nodetypes="csss" class="st10"/>
	</g>
	<g id="g10307" transform="translate(381.27 -64.718)">
			<linearGradient id="rect9397_1_" y2="1066.8" gradientUnits="userSpaceOnUse" x2="-1216.2" gradientTransform="translate(1001.6 -774.46)" y1="1065.6" x1="-1223">
			<stop stop-color="#56422A" offset="0"/>
			<stop stop-color="#BA9A71" offset="1"/>
		</linearGradient>
		<path id="rect9397" d="m-223.3 290.7l11.4 0.5-0.8 3.2-12-2.8c0.6-0.3 1-0.6 1.4-0.9z" sodipodi:nodetypes="ccccc" class="st11"/>
			<linearGradient id="path9400_1_" y2="1068.4" gradientUnits="userSpaceOnUse" x2="-1210.9" gradientTransform="translate(1001.6 -774.46)" y1="1066.2" x1="-1210.7">
			<stop stop-color="#E1E0E0" offset="0"/>
			<stop stop-color="#828282" offset="1"/>
		</linearGradient>
		<path id="path9400" d="m-205.8 292l-6-0.8-0.8 3.2h6.5l0.3-2.4z" sodipodi:nodetypes="ccccc" class="st12"/>
			<linearGradient id="path9402_1_" y2="1069.4" gradientUnits="userSpaceOnUse" x2="-1200.1" gradientTransform="translate(1001.6 -774.46)" y1="1067.7" x1="-1205.9">
			<stop offset="0"/>
			<stop stop-color="#828282" offset="1"/>
		</linearGradient>
		<path id="path9402" d="m-204.4 291c-1.3 0-2 1.5-2 2.5s2.7 4.6 10.7 1.2c-3.1-1.2-7.3-3.7-8.7-3.7z" sodipodi:nodetypes="czcc" class="st13"/>
	</g>
</g>
</svg>
