<?xml version="1.0" encoding="utf-8"?>
<!-- Generator: Adobe Illustrator 21.1.0, SVG Export Plug-In . SVG Version: 6.00 Build 0)  -->
<svg version="1.1" id="Ebene_1" xmlns="http://www.w3.org/2000/svg" xmlns:xlink="http://www.w3.org/1999/xlink" x="0px" y="0px"
	 viewBox="0 0 141.7 141.7" style="enable-background:new 0 0 141.7 141.7;" xml:space="preserve">
<style type="text/css">
	.st0{fill:#D50F2E;}
	.st1{fill:#EDEDED;}
	.st2{fill:#FFFFFF;}
</style>
<g>
	<g>
		<g>
			<circle class="st0" cx="71.3" cy="70.7" r="66.9"/>
		</g>
	</g>
	<path class="st1" d="M70.8,141.7c-39,0-70.8-31.8-70.8-70.8S31.8,0,70.8,0s70.9,31.8,70.9,70.9S109.8,141.7,70.8,141.7z M70.8,8
		C36.2,8,8,36.2,8,70.9s28.2,62.8,62.8,62.8s62.8-28.2,62.8-62.8S105.4,8,70.8,8z"/>
</g>
<path class="st2" d="M107.4,77.6c0.8-0.8,0.8-2.2,0-3s-2.2-0.8-3,0l-5.6,5.6l0,0L94.5,76l0,0l5.6-5.6c0.8-0.8,0.8-2.2,0-3
	s-2.2-0.8-3,0L91.5,73l0,0l-2-2L87,73.5l0,0l-9.2,9.2c-1.4,1.4-1.4,3.6,0,4.9l3.4,3.4l-20.5,20.5c-1.5,1.5-4,1.5-5.5,0
	c-0.7-0.7-1.1-1.7-1.1-2.8c0-1,0.4-2,1.1-2.8l14.3-14.3c3.2-3.2,3.2-8.4,0-11.5c-1.5-1.5-3.6-2.4-5.8-2.4s-4.2,0.8-5.8,2.4
	L43.7,94.6c-0.7,0.7-1.7,1.1-2.8,1.1s-2-0.4-2.8-1.1c-1.5-1.5-1.5-4,0-5.5l12.7-12.7C102.5,79.6,99,24.2,99,24.2
	c-15,22.9-46.5,1.5-58,26.2c-7,15,0.7,26.8,0.7,26.8c9.2-39.7,42.5-32,42.5-32c-25.5,2.3-33,19.1-35.2,27L35.1,86
	c-3.2,3.2-3.2,8.4,0,11.5c3.2,3.2,8.4,3.2,11.5,0L61,83.3c1.5-1.5,4-1.5,5.5,0s1.5,4,0,5.5l-14.3,14.3c-3.2,3.2-3.2,8.4,0,11.5
	c1.6,1.6,3.7,2.4,5.8,2.4s4.2-0.8,5.8-2.4l20.5-20.5l2.8,2.8c1.4,1.4,3.6,1.4,4.9,0l5.2-5.2l6.5-6.5l-2-2l0,0L107.4,77.6z"/>
</svg>
