<svg id="Performance" xmlns="http://www.w3.org/2000/svg" viewBox="0 0 72 72"><title>Talk</title><path d="M72,36A36,36,0,1,1,36,0,36,36,0,0,1,72,36" style="fill:#64bde1"/><path d="M68.66,36A32.66,32.66,0,1,1,36,3.34,32.66,32.66,0,0,1,68.66,36" style="fill:#005b7f"/><circle cx="36" cy="36" r="32.66" style="fill:none;stroke:#fff;stroke-miterlimit:10;stroke-width:2.29714291436332px"/><path d="M46.09,18.35a9.72,9.72,0,0,0-9.7-9.7H35.6a9.73,9.73,0,0,0-9.7,9.7V34.13H46.09Z" style="fill:#64bde1"/><path d="M25.91,44.85a9.72,9.72,0,0,0,9.7,9.7h.8a9.73,9.73,0,0,0,9.7-9.7V40.23H25.91Z" style="fill:#64bde1"/><path d="M47.56,45.32A10.71,10.71,0,0,1,36.86,56H35.14A10.71,10.71,0,0,1,24.44,45.32V38.78H47.56Zm3.38-9.37a1.58,1.58,0,0,0-.49-.26,1.6,1.6,0,0,0-.49-.08H22a1.57,1.57,0,0,0-1,.34,1.58,1.58,0,0,0,0,2.49,1.58,1.58,0,0,0,1,.34H23v6.54a12.17,12.17,0,0,0,10.51,12,2.46,2.46,0,0,0-.39,1.33v.38H28.36a2.11,2.11,0,0,0-1.44.68l-1.08,1.33c-.31.38-.16.68.32.68H45.83c.49,0,.63-.31.32-.68l-1.09-1.33a2.11,2.11,0,0,0-1.43-.68H38.83v-.38a2.44,2.44,0,0,0-.39-1.32A12.17,12.17,0,0,0,49,45.32V38.78H50a1.6,1.6,0,0,0,.49-.08,1.59,1.59,0,0,0,.49-2.76" style="fill:#64bde1"/><path d="M72,36A36,36,0,1,1,36,0,36,36,0,0,1,72,36" style="fill:#64bde1"/><path d="M68.66,36A32.66,32.66,0,1,1,36,3.34,32.66,32.66,0,0,1,68.66,36" style="fill:#005b7f"/><circle cx="36" cy="36" r="32.66" style="fill:none;stroke:#fff;stroke-miterlimit:10;stroke-width:2.29714291436332px"/><path d="M46.09,18.35a9.72,9.72,0,0,0-9.7-9.7H35.6a9.73,9.73,0,0,0-9.7,9.7V34.13H46.09Z" style="fill:#64bde1"/><path d="M25.91,44.85a9.72,9.72,0,0,0,9.7,9.7h.8a9.73,9.73,0,0,0,9.7-9.7V40.23H25.91Z" style="fill:#64bde1"/><path d="M47.56,45.32A10.71,10.71,0,0,1,36.86,56H35.14A10.71,10.71,0,0,1,24.44,45.32V38.78H47.56Zm3.38-9.37a1.58,1.58,0,0,0-.49-.26,1.6,1.6,0,0,0-.49-.08H22a1.57,1.57,0,0,0-1,.34,1.58,1.58,0,0,0,0,2.49,1.58,1.58,0,0,0,1,.34H23v6.54a12.17,12.17,0,0,0,10.51,12,2.46,2.46,0,0,0-.39,1.33v.38H28.36a2.11,2.11,0,0,0-1.44.68l-1.08,1.33c-.31.38-.16.68.32.68H45.83c.49,0,.63-.31.32-.68l-1.09-1.33a2.11,2.11,0,0,0-1.43-.68H38.83v-.38a2.44,2.44,0,0,0-.39-1.32A12.17,12.17,0,0,0,49,45.32V38.78H50a1.6,1.6,0,0,0,.49-.08,1.59,1.59,0,0,0,.49-2.76" style="fill:#64bde1"/></svg>