<?xml version="1.0" encoding="iso-8859-1"?>
<!-- Generator: Adobe Illustrator 19.0.0, SVG Export Plug-In . SVG Version: 6.00 Build 0)  -->
<svg version="1.1" id="Capa_1" xmlns="http://www.w3.org/2000/svg" xmlns:xlink="http://www.w3.org/1999/xlink" x="0px" y="0px"
	 viewBox="0 0 491.52 491.52" style="enable-background:new 0 0 491.52 491.52;" xml:space="preserve">
<circle style="fill:#E05B49;" cx="245.76" cy="245.76" r="245.76"/>
<path style="fill:#FCD462;" d="M219.642,104.961c-47.889,0.787-85.855,40.853-85.855,88.75v92.329c0,1.857-0.883,3.603-2.378,4.704
	l-24.07,17.72c-1.495,1.101-2.378,2.846-2.378,4.703v28.257c0,3.226,2.615,5.84,5.84,5.84h110.321V105.012
	C220.624,105.011,220.142,104.953,219.642,104.961z"/>
<path style="fill:#F6C358;" d="M334.905,308.464l-24.07-17.72c-1.495-1.1-2.378-2.847-2.378-4.704v-93.765
	c0-48.218-39.103-87.25-87.335-87.263v242.251h110.321c3.226,0,5.84-2.615,5.84-5.84v-28.257
	C337.283,311.31,336.4,309.564,334.905,308.464z"/>
<path style="fill:#64798A;" d="M181.825,347.263c0,21.703,17.593,39.297,39.297,39.297c21.703,0,39.296-17.594,39.296-39.297
	H181.825z"/>
<circle style="fill:#FFFFFF;" cx="319.693" cy="171.812" r="66.867"/>
<circle style="fill:#E56353;" cx="319.693" cy="171.812" r="54.298"/>
<path style="fill:#FFFFFF;" d="M306.242,134.771h26.929v74.085h-11.877v-62.959h-15.052V134.771z"/>
<g>
</g>
<g>
</g>
<g>
</g>
<g>
</g>
<g>
</g>
<g>
</g>
<g>
</g>
<g>
</g>
<g>
</g>
<g>
</g>
<g>
</g>
<g>
</g>
<g>
</g>
<g>
</g>
<g>
</g>
</svg>
