<?xml version="1.0" encoding="utf-8"?>
<!-- Generator: Adobe Illustrator 16.0.0, SVG Export Plug-In . SVG Version: 6.00 Build 0)  -->
<!DOCTYPE svg PUBLIC "-//W3C//DTD SVG 1.1//EN" "http://www.w3.org/Graphics/SVG/1.1/DTD/svg11.dtd">
<svg version="1.1" id="Layer_1" xmlns="http://www.w3.org/2000/svg" xmlns:xlink="http://www.w3.org/1999/xlink" x="0px" y="0px"
	 width="188px" height="188px" viewBox="0 0 188 188" enable-background="new 0 0 188 188" xml:space="preserve">
<g>
	<path fill="#AC1F27" d="M94,184.139c-49.703,0-90.138-40.437-90.138-90.139C3.862,44.297,44.297,3.862,94,3.862
		c49.702,0,90.139,40.436,90.139,90.138C184.139,143.702,143.702,184.139,94,184.139z"/>
	<path fill="#58595B" d="M94,7.723c47.573,0,86.276,38.704,86.276,86.277S141.573,180.276,94,180.276S7.723,141.573,7.723,94
		S46.427,7.723,94,7.723 M94,0C42.085,0,0,42.085,0,94c0,51.915,42.085,94,94,94c51.915,0,94-42.085,94-94
		C188,42.085,145.915,0,94,0L94,0z"/>
</g>
<g>
	<path fill="none" d="M133.412,66.29H54.806v50.896h29.52v2.262c0,0.904,0.453,1.81,1.131,2.262l0,0
		c0.452,0.34,1.018,0.565,1.696,0.565h13.912c0.679,0,1.244-0.226,1.696-0.565l0,0c0.679-0.565,1.132-1.357,1.132-2.262v-2.262
		h29.52V66.29L133.412,66.29L133.412,66.29z M102.761,119.448c0,0.904-0.791,1.696-1.696,1.696H87.153
		c-0.905,0-1.696-0.792-1.696-1.696v-2.262h17.304V119.448z M131.829,115.489H56.05V67.986h75.779V115.489z"/>
	<path fill="#FFFFFF" d="M142.687,117.187h-4.638c0,0,0-48.861,0-50.896c0-2.036-1.018-4.638-4.637-4.638h-78.72
		c-2.602,0-4.637,2.036-4.637,4.638v50.896h-4.637c-1.244,0-2.262,1.018-2.262,2.262c0,3.846,3.167,6.899,6.899,6.899l0,0h87.881
		l0,0c3.845,0,6.899-3.167,6.899-6.899C144.948,118.204,143.931,117.187,142.687,117.187z M133.412,117.187h-29.52v2.262
		c0,0.904-0.453,1.81-1.132,2.262l0,0c-0.452,0.34-1.018,0.565-1.696,0.565H87.153c-0.678,0-1.244-0.226-1.696-0.565l0,0
		c-0.679-0.565-1.131-1.357-1.131-2.262v-2.262H54.692V66.29h78.606l0,0l0,0L133.412,117.187z"/>
	<path fill="#FFFFFF" d="M85.343,119.448c0,0.904,0.792,1.696,1.697,1.696h13.911c0.905,0,1.697-0.792,1.697-1.696v-2.262H85.343
		V119.448z"/>
	<path fill="#FFFFFF" d="M56.05,67.986v47.503h75.779V67.986H56.05z M76.152,92.763l5.715,5.715
		c0.902,0.902,1.103,2.407,0.201,3.409c-0.501,0.702-1.204,1.003-1.805,1.003s-1.203-0.2-1.705-0.702l-8.523-8.522
		c-0.501-0.501-0.702-1.104-0.702-1.705s0.301-1.303,0.702-1.705l8.423-8.423c0.902-0.902,2.406-1.103,3.309-0.3
		c1.103,0.902,1.203,2.607,0.2,3.609l-5.815,5.816C75.65,91.46,75.65,92.262,76.152,92.763z M101.42,78.525l-10.228,28.578
		c-0.401,1.002-1.304,1.604-2.306,1.604c-0.301,0-0.501,0-0.802-0.1c-1.304-0.401-1.905-1.805-1.504-3.108L96.808,76.92
		c0.401-1.304,1.805-1.905,3.108-1.504C101.22,75.817,101.821,77.221,101.42,78.525z M117.965,93.866l-8.523,8.523
		c-0.4,0.301-1.103,0.501-1.704,0.501c-0.702,0-1.404-0.301-1.805-0.802c-0.803-1.003-0.702-2.507,0.2-3.409l5.716-5.716
		c0.501-0.501,0.501-1.304,0-1.805l-5.716-5.716c-0.902-0.902-1.103-2.306-0.301-3.309c0.902-1.103,2.607-1.204,3.609-0.201
		l8.523,8.523c0.501,0.501,0.702,1.103,0.702,1.705S118.366,93.465,117.965,93.866z"/>
</g>
</svg>
