<svg xmlns="http://www.w3.org/2000/svg" viewBox="0 0 61.59 61.59"><defs><style>.cls-1{fill:#fff;}.cls-2{fill:#dfeff1;}.cls-3{opacity:0.1;}.cls-4{fill:#f4f6f9;}.cls-5{fill:#344d60;}.cls-6{fill:#ffcd54;}.cls-7{fill:#f28208;}</style></defs><title>vsa-remote-control</title><g id="Layer_2" data-name="Layer 2"><g id="Layer_1-2" data-name="Layer 1"><path class="cls-1" d="M61.3,30.79A30.51,30.51,0,0,1,30.79,61.3,27,27,0,0,1,26.88,61,30.5,30.5,0,1,1,59.82,21.39a29.5,29.5,0,0,1,1.3,6C61.22,28.53,61.3,29.66,61.3,30.79Z"/><path class="cls-2" d="M30.79,61.59a27.22,27.22,0,0,1-4-.27,30.79,30.79,0,1,1,33.25-40,29.86,29.86,0,0,1,1.31,6.08c.13,1.33.19,2.42.19,3.41A30.8,30.8,0,0,1,30.79,61.59Zm0-61a30.21,30.21,0,0,0-3.88,60.17,28.49,28.49,0,0,0,7,.11A30.11,30.11,0,0,0,61,30.79c0-1-.06-2-.19-3.35a29.3,29.3,0,0,0-1.28-6A30.15,30.15,0,0,0,30.79.58Z"/><g class="cls-3"><path d="M61.3,30.79A30.51,30.51,0,0,1,33.93,61.14h-.11L13.07,38.75,48.78,14.12l12.16,12c.07.43.12.87.17,1.3A33.3,33.3,0,0,1,61.3,30.79Z"/></g><rect class="cls-4" x="13.65" y="15.48" width="34.64" height="21.24"/><path class="cls-5" d="M48.13,14.12H13.07V38.75H28.33v4H26.47a2.89,2.89,0,0,0-2.58,2L23.53,46l-.06.48a1.35,1.35,0,0,0,1.48,1.36H37.45a1.32,1.32,0,0,0,1.45-1.34l-.07-.49-.38-1.32a2.93,2.93,0,0,0-2.63-2H34v-4H49.3V14.12Zm-2,20.94H15.42V16.47H47V35.05Z"/><path class="cls-6" d="M26.58,31.73l1.4,1.4a6.16,6.16,0,0,1,6.38,0l1.42-1.42a7.47,7.47,0,0,0-4.58-1.57A7.4,7.4,0,0,0,26.58,31.73Z"/><path class="cls-6" d="M41.82,25.68,43.49,24c-6.49-6.25-18.13-6.23-24.6,0l1.63,1.63A16,16,0,0,1,41.82,25.68Z"/><path class="cls-6" d="M22.7,27.86l1.69,1.69a10.59,10.59,0,0,1,13.57,0l1.67-1.67A13,13,0,0,0,22.7,27.86Z"/><path class="cls-7" d="M31.25,35.21A2.77,2.77,0,0,0,28.48,38a1.71,1.71,0,0,0,0,.33v4.13a1.72,1.72,0,0,0,1.72,1.72h2.1A1.72,1.72,0,0,0,34,42.42v-4a2.77,2.77,0,0,0-2.74-3.19Zm0,1.3a1.45,1.45,0,0,1,.39.05,1.47,1.47,0,1,1-.78,0A1.45,1.45,0,0,1,31.25,36.52Z"/><circle class="cls-7" cx="31.27" cy="37.99" r="0.82"/></g></g></svg>