<?xml version="1.0" encoding="utf-8"?>
<!-- Generator: Adobe Illustrator 21.1.0, SVG Export Plug-In . SVG Version: 6.00 Build 0)  -->
<svg version="1.1" id="Ebene_1" xmlns="http://www.w3.org/2000/svg" xmlns:xlink="http://www.w3.org/1999/xlink" x="0px" y="0px"
	 viewBox="0 0 141.7 141.7" style="enable-background:new 0 0 141.7 141.7;" xml:space="preserve">
<style type="text/css">
	.st0{fill:#D50F2E;}
	.st1{fill:#EDEDED;}
	.st2{fill:#FFFFFF;}
</style>
<g>
	<g>
		<g>
			<circle class="st0" cx="71.3" cy="70.7" r="66.9"/>
			<path class="st1" d="M70.8,141.7c-39,0-70.8-31.8-70.8-70.8S31.8,0,70.8,0s70.9,31.8,70.9,70.9S109.8,141.7,70.8,141.7z M70.8,8
				C36.2,8,8,36.2,8,70.9s28.2,62.8,62.8,62.8s62.8-28.2,62.8-62.8S105.4,8,70.8,8z"/>
		</g>
	</g>
</g>
<path class="st2" d="M116.5,68.9H113v-4.5c0-1.6-1.3-3-3-3h-1.1c0-20.8-16.9-37.7-37.7-37.7S33.6,40.6,33.6,61.3h-1.1
	c-1.6,0-3,1.3-3,3v4.5h-3.4L23,73.4V80l3.1,4.6h3.4v4.5c0,1.6,1.3,3,3,3h9.3c1.6,0,3-1.3,3-3V64.3c0-1.6-1.3-3-3-3h-1.1
	c0-16.9,13.7-30.6,30.6-30.6s30.6,13.7,30.6,30.6h-1.1c-1.6,0-3,1.3-3,3v24.8c0,1.6,1.3,3,3,3h2v8.9c0,1.3-1.1,2.4-2.4,2.4H87
	c-0.6-1.8-2.3-3.1-4.2-3.1H69.9c-2.5,0-4.5,2-4.5,4.5v2.4c0,2.5,2,4.5,4.5,4.5h12.9c2,0,3.6-1.3,4.2-3.1h13.3c4.2,0,7.7-3.5,7.7-7.7
	V92h2c1.6,0,3-1.3,3-3v-4.5h3.4l3.1-4.6v-6.5L116.5,68.9z"/>
</svg>
