<?xml version="1.0" encoding="utf-8"?>
<!-- Generator: Adobe Illustrator 19.0.1, SVG Export Plug-In . SVG Version: 6.00 Build 0)  -->
<svg version="1.1" id="Layer_1" xmlns="http://www.w3.org/2000/svg" xmlns:xlink="http://www.w3.org/1999/xlink" x="0px" y="0px"
	 viewBox="0 0 100 100" enable-background="new 0 0 100 100" xml:space="preserve">
<circle fill="#0AB2B1" cx="50" cy="50" r="48.5"/>
<g>
	<path fill="#FFFFFF" d="M30.8,27.6h38.4l0.4,11.5h-1.6c-0.8-3.6-1.8-6-3-7.1c-1.2-1.1-3.8-1.6-7.7-1.6h-3.8v34.7
		c0,2.6,0.4,4.2,1.2,4.9c0.8,0.6,2.6,1,5.4,1.2v1.3H40.2v-1.3c2.9-0.2,4.7-0.7,5.4-1.4c0.7-0.7,1.1-2.5,1.1-5.5V30.4h-3.8
		c-3.8,0-6.3,0.5-7.7,1.6c-1.4,1.1-2.4,3.4-3.1,7.1h-1.7L30.8,27.6z"/>
</g>
</svg>
