<?xml version="1.0" encoding="utf-8"?>
<!-- Generator: Adobe Illustrator 18.1.0, SVG Export Plug-In . SVG Version: 6.00 Build 0)  -->
<!DOCTYPE svg PUBLIC "-//W3C//DTD SVG 1.1//EN" "http://www.w3.org/Graphics/SVG/1.1/DTD/svg11.dtd">
<svg version="1.1" id="Layer_1" xmlns="http://www.w3.org/2000/svg" xmlns:xlink="http://www.w3.org/1999/xlink" x="0px" y="0px"
	 viewBox="0 0 127.6 127.6" enable-background="new 0 0 127.6 127.6" xml:space="preserve">
<rect x="-128.7" y="-187.5" fill-rule="evenodd" clip-rule="evenodd" fill="#D19AFD" width="1" height="142"/>
<circle fill-rule="evenodd" clip-rule="evenodd" fill="#434351" stroke="#A64DFF" stroke-width="2" stroke-linecap="round" stroke-linejoin="round" stroke-miterlimit="10" cx="-128.2" cy="-251.5" r="62.5"/>
<rect x="-128.7" y="82.5" fill-rule="evenodd" clip-rule="evenodd" fill="#91B1FC" width="1" height="142"/>
<rect x="-128.7" y="-187.5" fill-rule="evenodd" clip-rule="evenodd" fill="#A84FFF" width="1" height="142"/>
<rect x="-128.7" y="352.5" fill-rule="evenodd" clip-rule="evenodd" fill="#52E7FF" width="1" height="142"/>
<rect x="-128.7" y="623.5" fill-rule="evenodd" clip-rule="evenodd" fill="#58FB9C" width="1" height="142"/>
<rect x="-128.7" y="893.5" fill-rule="evenodd" clip-rule="evenodd" fill="#FCFC50" width="1" height="142"/>
<rect x="-128.7" y="1155.5" fill-rule="evenodd" clip-rule="evenodd" fill="#F4A250" width="1" height="142"/>
<rect x="-128.7" y="1426.5" fill-rule="evenodd" clip-rule="evenodd" fill="#FF8B35" width="1" height="142"/>
<rect x="-128.7" y="1697.5" fill-rule="evenodd" clip-rule="evenodd" fill="#FF0B0B" width="1" height="142"/>
<g>
	<path fill="#BB69FC" d="M-112.4-277.7c-10.2,0-15.8-6.8-15.8-6.8s-5.6,6.8-15.8,6.8c-9.4,0-15.8-5.6-15.8-5.6v36.7
		c0.3,24.2,31.5,34.2,31.5,34.2s31.5-10,31.5-34.2v-36.7C-96.7-283.4-103-277.7-112.4-277.7z"/>
</g>
<g>
	
		<circle fill-rule="evenodd" clip-rule="evenodd" fill="#434351" stroke="#FF0000" stroke-width="2" stroke-linecap="round" stroke-linejoin="round" stroke-miterlimit="10" cx="64.8" cy="361.1" r="62.5"/>
	<g>
		<path fill="#FF3939" d="M54.1,343.3c4.4,0,7.9,3.5,7.9,7.9c0,4.4-3.6,7.9-8,7.9c-4.4,0-7.9-3.5-7.9-7.9
			C46.1,346.8,49.7,343.3,54.1,343.3z"/>
		<path fill-rule="evenodd" clip-rule="evenodd" fill="#FF3939" d="M47.8,338.8c6.9-3.5,15.4-0.8,18.9,6c3.5,6.8,0.7,15.3-6.2,18.8
			c-7,3.5-15.4,0.8-18.9-6C38,350.7,40.8,342.3,47.8,338.8z M29.8,363.5c0.7,1.3,1.4,2.5,2.2,3.6l6.5-0.6c1,1,2.1,1.9,3.3,2.7
			l0.4,6.3c2.4,1.1,4.9,1.9,7.5,2.3l4.1-4.9l0.2,0c1.3,0,2.6-0.1,3.8-0.4l4.7,4.1c1.2-0.4,2.5-0.9,3.7-1.6c1.2-0.6,2.4-1.3,3.4-2.1
			l-0.5-6c1.1-1,2-2.1,2.9-3.2l6.1-0.5c1.2-2.3,2-4.8,2.5-7.4l-4.4-3.7c0-0.4,0.1-0.8,0.1-1.2c0-1.3-0.1-2.5-0.3-3.8l3.8-4.4
			c-0.4-1.3-1-2.6-1.6-3.9c-0.5-1-1.1-1.9-1.7-2.8l-5.7,0.5c-1.3-1.4-2.7-2.7-4.3-3.7l-0.4-5.7c-2.2-1.1-4.5-1.8-6.8-2.2l-3.8,4.4
			c-0.4,0-0.8-0.1-1.2-0.1c-1.6,0-3.2,0.2-4.8,0.5l-4.4-3.8c-1.1,0.4-2.2,0.9-3.3,1.4c-1.1,0.5-2.1,1.2-3.1,1.8l0.5,6
			c-1.4,1.3-2.6,2.7-3.6,4.3l-6.1,0.5c-1,2.2-1.8,4.5-2.2,6.8l4.8,4l0,0.1c0,1.6,0.1,3.2,0.5,4.8l-4.1,4.7
			C28.9,361.5,29.4,362.5,29.8,363.5z"/>
		<path fill="#FF3939" d="M86.2,374.3c2.6,0,4.7,2.1,4.7,4.7c0,2.6-2.1,4.7-4.8,4.7c-2.6,0-4.7-2.1-4.7-4.7
			C81.4,376.4,83.6,374.3,86.2,374.3z"/>
		<path fill-rule="evenodd" clip-rule="evenodd" fill="#FF3939" d="M87,387.3c-4.6,0.5-8.7-2.9-9.2-7.4c-0.5-4.6,2.9-8.7,7.5-9.1
			c4.6-0.5,8.7,2.8,9.2,7.4C94.9,382.7,91.6,386.8,87,387.3z M94.7,365.5l-3,1.6c-0.2-0.1-0.4-0.2-0.6-0.3c-0.9-0.3-1.8-0.6-2.8-0.7
			l-1.6-3.1c-0.7,0-1.4,0-2.1,0.1c-0.7,0.1-1.4,0.2-2.1,0.4l-1,3.4c-1,0.4-2,1-2.9,1.6l-3.4-1c-1,1-1.9,2.1-2.7,3.4l1.8,3.3l0,0.1
			c-0.4,0.9-0.6,1.8-0.8,2.8l-3.3,1.7c0,0.6,0,1.3,0.1,1.9c0.1,0.9,0.2,1.7,0.4,2.5l3.7,1.1c0.3,0.8,0.8,1.5,1.2,2.2l-1.1,3.6
			c1.1,1.1,2.3,2.1,3.6,2.9l3.3-1.8l0.1,0c0.7,0.3,1.4,0.5,2.2,0.6l1.7,3.3c0.8,0,1.6,0,2.4-0.1c0.8-0.1,1.6-0.2,2.3-0.4l1-3.5
			c0.8-0.3,1.6-0.7,2.3-1.2l3.4,1.1c1.2-1,2.2-2.2,3-3.6l-1.7-3c0.1-0.2,0.2-0.4,0.3-0.6c0.3-0.7,0.5-1.5,0.6-2.2l3.1-1.6
			c0-0.8,0-1.7-0.1-2.5c-0.1-0.6-0.2-1.3-0.3-1.9l-3.2-0.9c-0.4-1.1-0.9-2.1-1.6-3l1-3.3C97,367.2,95.9,366.3,94.7,365.5z"/>
	</g>
</g>
<g>
	
		<circle fill-rule="evenodd" clip-rule="evenodd" fill="#434351" stroke="#FF8CDE" stroke-width="2" stroke-linecap="round" stroke-linejoin="round" stroke-miterlimit="10" cx="75.3" cy="505.1" r="62.5"/>
	<g>
		<g>
			<path fill="#FF4DFF" d="M65.3,492.3c-0.8,5.5-1.3,11.1-1.3,16.7c0.8,0.2,1.5,0.4,2.2,0.8c7.1-5.5,14.8-9.5,22.9-12
				c0.1-0.5,0.2-0.9,0.3-1.4c-5.7-3.8-11.8-6.7-18-8.5C70,490.2,67.9,491.8,65.3,492.3z"/>
			<path fill="#FF4DFF" d="M69,475.8c2.1,1.6,3.5,4.1,3.7,6.9c6.9,2,13.6,5.1,19.9,9.3c1.6-1.2,3.5-2,5.7-2c3.5,0,6.6,2,8.2,5
				c0.6,0,1.2,0,1.9,0c1.4,0,2.9,0.1,4.3,0.1c-4.4-16.5-19.5-28.6-37.3-28.6c-1.1,0-2.1,0.1-3.2,0.1C71,469.7,69.9,472.7,69,475.8z"
				/>
			<path fill="#FF4DFF" d="M107.4,500.4c-0.1,1.2-0.5,2.4-1.1,3.4c2.5,2.6,4.8,5.4,7,8.4c0.4-2.2,0.6-4.5,0.6-6.9
				c0-1.6-0.1-3.1-0.3-4.6c-1.8-0.2-3.6-0.3-5.4-0.3C108,500.3,107.7,500.4,107.4,500.4z"/>
			<path fill="#FF4DFF" d="M54.6,480.2c1.2-3.6,4.7-6.3,8.8-6.3c0.2,0,0.4,0,0.5,0c0.6-2.1,1.3-4.2,2.1-6.3
				c-8.3,2-15.5,6.8-20.7,13.2C48.4,480.5,51.5,480.2,54.6,480.2z"/>
			<path fill="#FF4DFF" d="M102.5,507.6c-1.3,0.7-2.7,1.1-4.3,1.1c-3.7,0-6.9-2.2-8.4-5.4c-6.9,2.2-13.6,5.7-19.7,10.3
				c0.8,1.3,1.2,2.9,1.2,4.6c0,4.1-2.6,7.5-6.2,8.8c0.8,5.6,1.9,11.1,3.5,16.5c2.2,0.4,4.5,0.6,6.8,0.6c16.5,0,30.7-10.5,36.2-25.2
				C108.7,514.7,105.7,511,102.5,507.6z"/>
			<path fill="#FF4DFF" d="M53.6,521.9c-0.5-1.2-0.8-2.4-0.8-3.8c0-3.9,2.4-7.2,5.8-8.6c0-6,0.5-11.9,1.3-17.7
				c-2.7-1.1-4.8-3.4-5.5-6.2c-4.4,0-8.9,0.6-13.2,1.6c-2.9,5.4-4.5,11.6-4.5,18.1c0,9.9,3.7,19,9.9,25.9
				C48.8,527.9,51.1,524.8,53.6,521.9z"/>
			<path fill="#FF4DFF" d="M57.1,526c-2.3,2.8-4.5,5.8-6.6,8.9c3.5,3,7.6,5.3,12,6.9c-1.2-4.8-2.2-9.7-2.9-14.7
				C58.8,526.9,57.9,526.5,57.1,526z"/>
		</g>
	</g>
</g>
<circle fill-rule="evenodd" clip-rule="evenodd" fill="#434351" stroke="#FF842C" stroke-width="2" stroke-linecap="round" stroke-linejoin="round" stroke-miterlimit="10" cx="63.5" cy="63.9" r="62.5"/>
<g>
	<path fill="#FF711C" d="M65,82.3c-2.3,0-4.2,1.9-4.2,4.2c0,2.3,1.9,4.2,4.2,4.2s4.2-1.9,4.2-4.2C69.1,84.2,67.3,82.3,65,82.3z"/>
	<path fill-rule="evenodd" clip-rule="evenodd" fill="#FF711C" d="M65,93.4c-3.7,0-6.7-2.7-7.2-6.2l2-24.6h2.9v-5.1H67v5.1h3.2
		l2,24.9C71.7,91,68.7,93.4,65,93.4z M60.5,36.5h3.6v2.2h-3.6V36.5z M64.8,53.1v2.2h-3.6v-2.2H64.8z M64.8,46.6h-3.6v-2.2h3.6V46.6z
		 M68.4,48.8V51h-3.6v-2.2H68.4z M64.8,40.1h3.6v2.2h-3.6V40.1z M85.8,32.1H42.5c-6,0-10.8,4.9-10.8,10.9v43.5
		c0,6,4.8,10.9,10.8,10.9h43.3c6,0,10.8-4.9,10.8-10.9V43C96.6,37,91.7,32.1,85.8,32.1z"/>
</g>
<rect x="61.5" y="35.4" fill-rule="evenodd" clip-rule="evenodd" fill="#434351" width="4.9" height="3.7"/>
<rect x="66.4" y="39.1" fill-rule="evenodd" clip-rule="evenodd" fill="#434351" width="4.9" height="3.7"/>
<rect x="61.5" y="42.8" fill-rule="evenodd" clip-rule="evenodd" fill="#434351" width="4.9" height="3.7"/>
<rect x="66.4" y="46.5" fill-rule="evenodd" clip-rule="evenodd" fill="#434351" width="4.9" height="3.7"/>
<rect x="66.4" y="50.2" fill-rule="evenodd" clip-rule="evenodd" fill="#FF711C" width="4.9" height="3.7"/>
<rect x="61.5" y="53.9" fill-rule="evenodd" clip-rule="evenodd" fill="#FF711C" width="4.9" height="2.5"/>
<rect x="61.5" y="50.2" fill-rule="evenodd" clip-rule="evenodd" fill="#434351" width="4.9" height="3.7"/>
<g>
	<rect x="56.6" y="34.8" fill-rule="evenodd" clip-rule="evenodd" fill="#FF711C" width="4.9" height="4.6"/>
	<rect x="56.6" y="42.7" fill-rule="evenodd" clip-rule="evenodd" fill="#FF711C" width="4.9" height="4.6"/>
	<rect x="56.6" y="47.9" fill-rule="evenodd" clip-rule="evenodd" fill="#FF711C" width="4.9" height="4.6"/>
	<rect x="56.6" y="51" fill-rule="evenodd" clip-rule="evenodd" fill="#FF711C" width="4.9" height="4.6"/>
	<rect x="61.5" y="46.4" fill-rule="evenodd" clip-rule="evenodd" fill="#FF711C" width="4.9" height="3.8"/>
	<rect x="61.5" y="39" fill-rule="evenodd" clip-rule="evenodd" fill="#FF711C" width="4.9" height="3.8"/>
</g>
</svg>
